{
	"patcher" : 	{
		"fileversion" : 1,
		"appversion" : 		{
			"major" : 8,
			"minor" : 5,
			"revision" : 4,
			"architecture" : "x64",
			"modernui" : 1
		}
,
		"classnamespace" : "dsp.gen",
		"rect" : [ 299.0, 192.0, 749.0, 703.0 ],
		"bglocked" : 0,
		"openinpresentation" : 0,
		"default_fontsize" : 12.0,
		"default_fontface" : 0,
		"default_fontname" : "Arial",
		"gridonopen" : 1,
		"gridsize" : [ 15.0, 15.0 ],
		"gridsnaponopen" : 1,
		"objectsnaponopen" : 1,
		"statusbarvisible" : 2,
		"toolbarvisible" : 1,
		"lefttoolbarpinned" : 0,
		"toptoolbarpinned" : 0,
		"righttoolbarpinned" : 0,
		"bottomtoolbarpinned" : 0,
		"toolbars_unpinned_last_save" : 0,
		"tallnewobj" : 0,
		"boxanimatetime" : 200,
		"enablehscroll" : 1,
		"enablevscroll" : 1,
		"devicewidth" : 0.0,
		"description" : "",
		"digest" : "",
		"tags" : "",
		"style" : "",
		"subpatcher_template" : "",
		"assistshowspatchername" : 0,
		"boxes" : [ 			{
				"box" : 				{
					"id" : "obj-21",
					"maxclass" : "newobj",
					"numinlets" : 0,
					"numoutlets" : 1,
					"outlettype" : [ "" ],
					"patching_rect" : [ 566.0, 15.0, 152.0, 22.0 ],
					"text" : "in 3 @comment resonance"
				}

			}
, 			{
				"box" : 				{
					"id" : "obj-9",
					"maxclass" : "newobj",
					"numinlets" : 1,
					"numoutlets" : 0,
					"patching_rect" : [ 15.0, 660.0, 151.0, 22.0 ],
					"text" : "out 1 @comment highpass"
				}

			}
, 			{
				"box" : 				{
					"id" : "obj-7",
					"maxclass" : "newobj",
					"numinlets" : 0,
					"numoutlets" : 1,
					"outlettype" : [ "" ],
					"patching_rect" : [ 290.5, 15.0, 149.0, 22.0 ],
					"text" : "in 2 @comment frequency"
				}

			}
, 			{
				"box" : 				{
					"id" : "obj-6",
					"maxclass" : "newobj",
					"numinlets" : 0,
					"numoutlets" : 1,
					"outlettype" : [ "" ],
					"patching_rect" : [ 15.0, 15.0, 122.0, 22.0 ],
					"text" : "in 1 @comment input"
				}

			}
, 			{
				"box" : 				{
					"code" : "/* Korg 35 highpass\r\n * stable cf between 0 .. sr/2-ish\r\n * safe q between 0 .. 10\r\n */ \n\nk35_hp(xin, cf, q) {\n    History z1(0), z2(0), z3(0), S35(0);\n\n    T = 1 / samplerate;\n    T_div_two = T / 2;\n    two_div_T = 2 / T;\n\n    wd = twopi * cf;\n    wa = two_div_T * tan(wd * T_div_two);\n    g = wa * T_div_two;\n    G = g / (1 + g);\n\n    K = 0.01 + ((2 - 0.01) * (q / 10));\n\n    hpf2_beta = -G / (1 + g);\n    lpf1_beta = 1 / (1 + g);\n    alpha = 1 / (1 - (K * G) + (K * G * G));\n\n    v1 = (xin - z1) * G;\n    lp1 = v1 + z1;\n    z1 = lp1 + v1;\n    y1 = xin - lp1;\n\n    u = alpha * (y1 + S35);\n    y = K * u;\n\n    v2 = (y - z2) * G;\n    lp2 = v2 + z2;\n    z2 = lp2 + v2;\n    hp2 = y - lp2;\n\n    v3 = (hp2 - z3) * G;\n    lp3 = v3 + z3;\n    z3 = lp3 + v3;\n\n    S35 = (hpf2_beta * z2) + (lpf1_beta * z3);\n\n    return (K > 0) ? (y / K) : y;\n}\r\n\r\nlimit = samplerate / 2 - 25;\r\n\r\ncf = clip(in2, 0, limit);\r\nq = clip(in3, 0, 1) * 10;\r\n\r\nout1 = k35_hp(in1, cf, q);",
					"fontface" : 0,
					"fontname" : "<Monospaced>",
					"fontsize" : 12.0,
					"id" : "obj-5",
					"maxclass" : "codebox",
					"numinlets" : 3,
					"numoutlets" : 1,
					"outlettype" : [ "" ],
					"patching_rect" : [ 15.0, 53.0, 570.0, 592.0 ]
				}

			}
 ],
		"lines" : [ 			{
				"patchline" : 				{
					"destination" : [ "obj-5", 2 ],
					"source" : [ "obj-21", 0 ]
				}

			}
, 			{
				"patchline" : 				{
					"destination" : [ "obj-9", 0 ],
					"source" : [ "obj-5", 0 ]
				}

			}
, 			{
				"patchline" : 				{
					"destination" : [ "obj-5", 0 ],
					"source" : [ "obj-6", 0 ]
				}

			}
, 			{
				"patchline" : 				{
					"destination" : [ "obj-5", 1 ],
					"source" : [ "obj-7", 0 ]
				}

			}
 ]
	}

}
